# xmcd
#
# Track frame offsets:
#	150
#	15232
#	35737
#	59880
#	76007
#	91242
#	102835
#	119677
#	137672
#	158272
#	168790
#	186680
#	210260
#	221547
#	236917
#	254877
#
# Disc length: 3604 seconds
#
# Revision: 0
# Processed by: cddbd v1.4b42PL1 Copyright (c) Steve Scherf et al.
# Submitted via: EZCDDA 4.3.3.2
#
DISCID=dc0e1210
DTITLE=Hasse Andersson - Dans På Vejby Ängar
DYEAR=1900
DGENRE=
TTITLE0=Dans på Vejby ängar
TTITLE1=Måsen
TTITLE2=Sommaren i år
TTITLE3=En kväll i juni
TTITLE4=Stora vita hus
TTITLE5=Little Band Of Gold
TTITLE6=Torghandel
TTITLE7=Vinter epos
TTITLE8=Septemberkväll
TTITLE9=Fiskefänge
TTITLE10=Liselott
TTITLE11=Tokiga Ida
TTITLE12=Utvikta Susanne
TTITLE13=Käre John
TTITLE14=Sommar i stan
TTITLE15=Arrendatorns klagan
EXTD=
EXTT0=
EXTT1=
EXTT2=
EXTT3=
EXTT4=
EXTT5=
EXTT6=
EXTT7=
EXTT8=
EXTT9=
EXTT10=
EXTT11=
EXTT12=
EXTT13=
EXTT14=
EXTT15=
PLAYORDER=
